<svg xmlns="http://www.w3.org/2000/svg" viewBox="0 0 24 24" fill="#000">
  <path d="M12 2a10 10 0 0 0-3.16 19.49c.5.09.68-.21.68-.47v-1.7c-2.77.6-3.36-1.34-3.36-1.34-.46-1.18-1.12-1.5-1.12-1.5-.91-.62.07-.61.07-.61 1 .07 1.53 1.05 1.53 1.05.9 1.52 2.36 1.08 2.94.83.09-.66.35-1.09.63-1.34-2.21-.25-4.55-1.1-4.55-4.9 0-1.08.39-1.96 1.03-2.65-.1-.25-.45-1.26.1-2.62 0 0 .84-.27 2.75 1.02a9.5 9.5 0 0 1 5 0c1.9-1.29 2.74-1.02 2.74-1.02.56 1.36.21 2.37.11 2.62.64.69 1.03 1.57 1.03 2.65 0 3.81-2.34 4.64-4.57 4.89.36.31.68.91.68 1.84v2.73c0 .27.18.57.69.47A10 10 0 0 0 12 2Z"/>
</svg>
