<svg xmlns="http://www.w3.org/2000/svg" viewBox="0 0 24 24" fill="none" stroke="currentColor" stroke-width="1.4" stroke-linejoin="round" stroke-linecap="round">
  <path d="M12 4c-4.5 0-7 2.7-7 6.2 0 2.4 1.5 4.4 3.9 5.3L10 22l2-2.5L14 22l1.1-6.5c2.4-0.9 3.9-2.9 3.9-5.3C19 6.7 16.5 4 12 4z" />
  <path d="M9 9.5s1.5-1 3-1 3 1 3 1" />
  <path d="M9.8 10.8c0 0.8-0.5 1.4-1.1 1.4s-1.1-0.6-1.1-1.4 0.5-1.4 1.1-1.4 1.1 0.6 1.1 1.4z" />
  <path d="M16.4 10.8c0 0.8-0.5 1.4-1.1 1.4s-1.1-0.6-1.1-1.4 0.5-1.4 1.1-1.4 1.1 0.6 1.1 1.4z" />
</svg>
